<?xml version="1.0" encoding="UTF-8" standalone="no"?>
<svg
   xmlns="http://www.w3.org/2000/svg"
   version="1.1"
   width="728"
   height="728"
   viewBox="0 0 728 728"
>
  <g>
    <path fill="white"
       d="m 421.17627,640.99228 c -22.67972,-3.18195 -42.27262,-11.77124 -53.7348,-23.55669 -4.72464,-4.85788 -6.41703,-6.02877 -7.68681,-5.31817 -1.23857,0.69314 -15.46484,-7.05917 -59.44147,-32.39144 L 242.5,546.42331 l -8,0.0383 c -9.74368,0.0467 -10.73915,-0.34727 -30.62187,-12.11919 -16.15114,-9.56257 -19.30938,-12.31316 -23.39466,-20.37508 -2.03022,-4.00644 -3.66058,-5.47129 -10.44461,-9.38432 L 162,499.94625 v -54.30822 -54.30822 l 45.75,-26.32456 c 25.1625,-14.47851 45.94056,-26.48078 46.17347,-26.67171 0.33563,-0.27514 35.12158,-119.9134 39.10402,-134.48926 1.1724,-4.29101 -10.07941,2.53651 109.17714,-66.24788 l 82.70464,-47.702092 31.79536,18.408342 C 534.19209,118.42724 573.7,141.2463 604.5,159.01166 c 30.8,17.76537 60.49533,34.91725 65.98962,38.1153 l 9.98962,5.81462 19.82916,45.77921 19.82915,45.77921 -0.41356,60 c -0.44761,64.93902 -0.36104,63.81662 -6.32431,82 -3.15142,9.60939 -10.00119,23.60017 -15.91173,32.5 -20.8391,31.37858 -52.05828,49.70801 -72.42498,42.52222 -7.65987,-2.70256 -35.69619,-20.27131 -38.99426,-24.43546 l -3.07084,-3.87726 -41.96551,24.14525 c -23.08103,13.27989 -41.98055,24.38573 -41.99894,24.67964 -0.0184,0.29392 1.25718,1.29677 2.83459,2.22857 5.8606,3.46194 12.88868,10.8001 16.2093,16.92445 L 521.5,557.5 v 22.5 22.5 l -2.89155,5.49609 c -7.50019,14.25593 -26.66774,25.85209 -52.10845,31.52503 -8.3037,1.85162 -36.1659,2.75599 -45.32373,1.47116 z M 457.5,592.4956 c 19.66782,-4.12931 34.49237,-17.97392 31.94064,-29.82928 -3.31342,-15.39419 -23.44436,-25.81601 -49.94064,-25.85437 -26.37028,-0.0382 -46.62448,10.44747 -49.94064,25.85437 -2.51793,11.69833 12.18686,25.62345 31.44064,29.7736 8.65853,1.86635 27.73721,1.89546 36.5,0.0557 z M 335.03273,562.48307 c 7.87854,-4.07414 8.58566,-17.28488 1.67985,-31.38326 -8.82132,-18.00892 -28.24737,-26.63525 -34.17363,-15.17514 -6.69341,12.94364 4.00987,37.68839 19.67958,45.49694 5.94758,2.9638 8.69534,3.19141 12.8142,1.06146 z M 415,519.86319 c 2.475,-0.59836 11.61294,-1.37486 20.30654,-1.72555 l 15.80655,-0.63764 -11.58912,-6.36367 -11.58912,-6.36367 -7.21742,5.53024 c -7.58529,5.8121 -12.70257,10.71393 -11.14174,10.67265 0.50837,-0.0134 2.94931,-0.51401 5.42431,-1.11236 z M 215.22641,491.2951 c 8.69412,-7.86807 5.11177,-27.29393 -7.57058,-41.05265 -16.81339,-18.24038 -34.04789,-8.79262 -27.04552,14.82605 2.39033,8.06246 5.03061,12.6679 10.75012,18.75142 8.72315,9.27832 18.49241,12.3382 23.86598,7.47518 z m 440.13073,-9.92111 c 13.8927,-4.90163 29.58051,-23.04812 36.83975,-42.61348 3.9802,-10.72755 5.06363,-26.17135 2.3369,-33.3112 -2.21335,-5.79559 -6.06315,-10.35472 -10.20498,-12.08528 -17.89857,-7.47851 -45.13838,14.95788 -55.40623,45.63597 -2.61445,7.81141 -3.18888,11.12115 -3.23174,18.62063 -0.0456,7.97591 0.29206,9.82413 2.69026,14.72587 5.21029,10.64945 14.02151,13.59812 26.97604,9.02749 z m -196.9406,-99.46532 c 10.89043,-34.15024 19.41439,-62.4294 18.94213,-62.84259 -1.54802,-1.35436 -171.57498,-99.1844 -171.83665,-98.8713 -0.1403,0.16787 -2.97931,8.85522 -6.30891,19.30522 -3.3296,10.45 -12.20989,38.28227 -19.73398,61.84949 -7.52409,23.56721 -13.29743,43.21289 -12.82964,43.65706 1.09372,1.03852 170.66674,98.95615 171.40838,98.97744 0.30683,0.009 9.46823,-27.92509 20.35867,-62.07532 z m 28.272,47.75234 C 499.23484,422.32457 524.8,407.4369 543.5,396.5773 c 18.7,-10.8596 34.56667,-20.2898 35.25928,-20.956 0.98668,-0.94908 1.20315,-12.17899 1,-51.87746 L 579.5,273.07765 l -40,23.03465 c -22,12.66906 -40.51297,23.56409 -41.13994,24.21118 C 497.7331,320.97056 489.77594,347.6 480.6775,379.5 462.37925,443.65539 462.55829,443 463.33013,443 c 0.30082,0 10.8121,-6.00255 23.35841,-13.33899 z m 162.06312,-94.31309 c 31.76159,-18.50864 58.08373,-33.94153 58.49366,-34.29532 0.895,-0.77242 -33.85482,-81.63219 -34.96893,-81.36962 C 671.84938,219.78362 653.275,230.40364 631,243.28304 l -40.5,23.41707 -0.25908,51.14995 C 590.09842,345.98253 590.21167,369 590.49258,369 c 0.2809,0 26.49749,-15.14343 58.25908,-33.65208 z m -496.0232,37.34748 c -5.22349,-1.6556 -10.25061,-5.94029 -12.22798,-10.4221 L 138.8357,358.5 h -10.66785 c -9.71783,0 -11.18831,-0.25534 -16.51208,-2.8672 -3.21432,-1.57696 -8.21126,-5.27235 -11.1043,-8.21199 l -5.26008,-5.34479 -6.395695,3.38166 c -6.504721,3.4393 -18.736018,6.5564 -25.603537,6.52496 -6.1583,-0.0282 -17.171312,-2.73525 -23.704597,-5.82669 C 11.47671,332.85433 0.044237,299.05724 13.979607,270.45279 c 1.620326,-3.32596 5.325595,-8.6656 8.23393,-11.86587 l 5.287882,-5.81868 -3.771359,-7.63412 c -9.741068,-19.71822 -8.367867,-41.23548 3.773313,-59.12562 17.616762,-25.95846 51.613375,-33.48596 79.116197,-17.51784 6.87107,3.98934 17.31151,14.93006 21.0082,22.01488 2.92612,5.60798 5.41842,12.46462 6.77836,18.64813 l 0.58362,2.65368 4.75513,-1.48872 c 6.72504,-2.10544 21.36524,-2.0523 28.70284,0.10419 10.26716,3.01747 17.59477,7.39206 25.06938,14.96643 3.8594,3.91091 8.25673,9.43971 9.77185,12.28623 3.5419,6.65432 6.71587,19.094 6.69369,26.23448 -0.0725,23.35093 -14.93325,44.65479 -36.7743,52.7185 l -6.95013,2.56599 -0.52691,6.15277 c -0.2898,3.38403 -0.82136,6.87597 -1.18125,7.75986 -0.47158,1.15822 0.19941,1.96072 2.40241,2.87323 7.09972,2.9408 11.71825,11.70881 10.69932,20.31206 -1.40415,11.85587 -13.71234,19.95638 -24.92332,16.40303 z"
    />
  </g>
</svg>
