<?xml version="1.0" encoding="UTF-8" standalone="no"?>
<svg
   xmlns:dc="http://purl.org/dc/elements/1.1/"
   xmlns:cc="http://creativecommons.org/ns#"
   xmlns:rdf="http://www.w3.org/1999/02/22-rdf-syntax-ns#"
   xmlns:svg="http://www.w3.org/2000/svg"
   xmlns="http://www.w3.org/2000/svg"
   xmlns:sodipodi="http://sodipodi.sourceforge.net/DTD/sodipodi-0.dtd"
   xmlns:inkscape="http://www.inkscape.org/namespaces/inkscape"
   version="1.1"
   id="svg62"
   width="723.71399"
   height="517.63281"
   viewBox="0 0 723.71399 517.63281"
   sodipodi:docname="Spirit_of_Ecstasy.svg"
   inkscape:version="1.0.1 (0767f8302a, 2020-10-17)">
  <metadata
     id="metadata68">
    <rdf:RDF>
      <cc:Work
         rdf:about="">
        <dc:format>image/svg+xml</dc:format>
        <dc:type
           rdf:resource="http://purl.org/dc/dcmitype/StillImage" />
        <dc:title></dc:title>
      </cc:Work>
    </rdf:RDF>
  </metadata>
  <defs
     id="defs66" />
  <sodipodi:namedview
     pagecolor="#ffffff"
     bordercolor="#666666"
     borderopacity="1"
     objecttolerance="10"
     gridtolerance="10"
     guidetolerance="10"
     inkscape:pageopacity="0"
     inkscape:pageshadow="2"
     inkscape:window-width="1920"
     inkscape:window-height="968"
     id="namedview64"
     showgrid="false"
     fit-margin-top="0"
     fit-margin-left="0"
     fit-margin-right="0"
     fit-margin-bottom="0"
     inkscape:zoom="1.0992188"
     inkscape:cx="407.78337"
     inkscape:cy="272.31232"
     inkscape:window-x="0"
     inkscape:window-y="27"
     inkscape:window-maximized="1"
     inkscape:current-layer="g70" />
  <g
     inkscape:groupmode="layer"
     inkscape:label="Image"
     id="g70"
     transform="translate(-19.063422,-22.73158)">
    <path
       style="fill:#000000;stroke-width:1.33333"
       d="m 715.0634,537.51259 c -36.72281,-11.84585 -110.22982,-21.46502 -136.07569,-17.80693 -20.98933,2.97072 -37.90897,0.0192 -57.36553,-10.00704 -10.10463,-5.20705 -13.60931,-8.12081 -30,-24.94172 -27.85597,-28.58715 -37.08922,-32.05957 -64.07628,-24.09769 -22.48169,6.63268 -26.52037,7.50725 -35.18208,7.61864 -24.79427,0.31886 -43.43561,-17.3612 -47.99106,-45.51631 -1.51845,-9.38492 -0.93891,-18.92164 1.14988,-18.92164 0.55279,0 1.8086,2.22214 2.79069,4.93807 2.73442,7.56187 14.1191,18.13539 23.17475,21.52355 10.75678,4.02462 17.30021,3.82296 20.81189,-0.64143 3.57664,-4.54696 3.48467,-6.51596 -0.69628,-14.90603 -5.97871,-11.99769 -20.13688,-21.02745 -39.20318,-25.00289 -10.64946,-2.22048 -22.48764,-2.53601 -76.67043,-2.04356 -40.91605,0.37187 -58.14424,-1.14868 -82.5199,-7.28312 -34.23016,-8.61445 -65.62953,-25.76157 -89.94591,-49.11922 C 92.902634,321.35216 87.101494,313.68551 77.291324,296.98001 61.529904,270.1403 50.370802,259.1035 30.788376,250.9867 c -6.448725,-2.67295 -11.724954,-5.30167 -11.724954,-5.84159 0,-2.73541 9.582202,-4.63821 23.333332,-4.63347 13.655576,0.005 15.26413,0.29071 23.33334,4.14847 10.42556,4.98429 19.46886,13.51411 29.5228,27.84647 9.101536,12.97467 11.967046,15.70625 20.380396,19.42787 15.04494,6.6551 32.33953,-2.16578 28.02085,-14.29167 -1.94266,-5.45455 -7.0966,-8.39723 -17.86516,-10.20024 l -9.86633,-1.65196 3.85718,-2.52732 c 8.57634,-5.61943 34.11417,-3.4876 46.72029,3.90008 8.83636,5.17845 19.54178,17.94939 29.2499,34.89345 18.83644,32.87616 29.65484,45.03745 47.74633,53.6731 13.46781,6.42862 21.358,8.11002 38.05736,8.11002 27.1711,0 39.15774,-9.16252 32.79385,-25.06746 -4.76555,-11.91026 -14.18824,-15.75732 -43.22688,-17.64846 -10.60184,-0.69046 -22.30184,-2.1377 -26,-3.2161 -18.14977,-5.29253 -28.83948,-18.31706 -28.88421,-35.19304 -0.0189,-7.14421 2.72291,-16.49589 5.3042,-18.09121 0.65137,-0.40257 2.44264,2.7064 3.98059,6.90883 5.70668,15.59346 15.09946,22.12013 27.20882,18.90628 13.50996,-3.58558 15.31149,-12.651 4.87602,-24.53635 -5.2864,-6.02088 -11.98055,-9.45264 -32.28422,-16.55056 -27.39186,-9.57586 -39.13154,-17.01269 -45.26489,-28.67432 -3.75436,-7.13833 -3.93785,-20.49037 -0.38715,-28.17094 l 2.46559,-5.33333 1.03208,6.41693 c 1.23209,7.66041 2.80744,10.24002 11.37799,18.63138 9.7656,9.56143 20.12544,14.1385 37.38989,16.51919 20.43879,2.8184 24.27619,4.82197 40.38464,21.08549 15.62322,15.77364 20.81392,18.96227 27.98349,17.19016 7.77489,-1.9217 7.19928,-5.99214 -2.12672,-15.03885 -6.09419,-5.91171 -10.61627,-8.76611 -20.86883,-13.17272 -17.17222,-7.38072 -23.96771,-12.17397 -27.44603,-19.35923 -2.91955,-6.03097 -3.7656,-14.27236 -1.46519,-14.27236 0.73333,0 1.33333,0.5624 1.33333,1.24979 0,2.93713 18.03616,9.71399 39.33333,14.77899 39.61358,9.4211 50.82095,14.1255 63.2418,26.54636 12.38982,12.38981 20.00864,31.69338 20.06839,50.84665 0.07,22.45713 7.342,37.21432 18.49448,37.53141 7.32333,0.20821 11.86636,-2.81081 17.38945,-11.55601 2.88263,-4.56432 7.17333,-9.92459 9.53488,-11.91171 4.35301,-3.66281 13.51949,-8.81881 15.67833,-8.81881 0.64914,0 -0.52696,3.38454 -2.61354,7.52122 -4.49607,8.91351 -4.7406,13.68098 -1.08868,21.22484 6.36337,13.14498 23.07852,24.61562 52.04341,35.7144 23.81762,9.12645 34.97089,19.16692 40.17684,36.16824 0.68005,2.22088 1.78584,16.33796 2.45729,31.37129 0.67147,15.03334 2.04355,30.33333 3.04908,34 4.06036,14.80613 11.85981,24.88997 24.5242,31.70708 l 6.88676,3.70707 11.98227,-2.19218 11.98226,-2.19218 7.55195,6.15177 c 6.10849,4.97595 8.54797,6.15177 12.76305,6.15177 2.86611,0 5.21111,-0.30485 5.21111,-0.67746 0,-0.3726 -2.39536,-1.6359 -5.32301,-2.80731 -3.4999,-1.40037 -6.98954,-4.40009 -10.18875,-8.75829 -2.67615,-3.64564 -7.18079,-8.08988 -10.01032,-9.87608 -4.36629,-2.75632 -5.14459,-3.95111 -5.14459,-7.89758 0,-2.55748 0.15,-4.64717 0.33334,-4.64377 0.18333,0.004 3.93333,1.48916 8.33333,3.30169 9.34565,3.84983 13.61569,4.31998 8.67864,0.95554 -11.92111,-8.12384 -20.31479,-19.24608 -25.3546,-33.59673 -2.41813,-6.88555 -4.68036,-10.26787 -11.00765,-16.4579 l -7.964,-7.79122 0.63481,-11.54211 c 0.49091,-8.92576 2.03771,-15.85543 6.8238,-30.57049 6.85527,-21.07688 7.12304,-23.29636 4.06935,-33.72961 -3.12879,-10.6898 -8.56563,-20.74648 -21.96414,-40.62767 -16.2207,-24.06885 -19.0741,-30.5435 -19.0741,-43.281 0,-17.8172 8.55301,-31.40414 24.55402,-39.00548 l 9.11027,-4.32785 h -31.58653 c -35.17905,0 -40.75767,-0.88349 -58.50799,-9.266 -28.18372,-13.30964 -48.00716,-34.3273 -65.45733,-69.40066 -3.64859,-7.33334 -13.28312,-26.83334 -21.41009,-43.333328 -8.12696,-16.50001 -19.61489,-38.10001 -25.52872,-48.00001 -9.29937,-15.56753 -10.70264,-18.72072 -10.38408,-23.333331 0.36137,-5.23231 0.4732,-5.34097 5.90343,-5.736897 3.8584,-0.28132 9.12698,0.983627 17.39278,4.175887 22.68037,8.759171 31.94364,14.013971 75.7388,42.964561 16.86667,11.14963 37.79031,24.34385 46.49699,29.32048 39.60686,22.638808 83.78938,38.439438 145.40655,52.000528 11.78639,2.59401 23.19721,5.41361 25.3574,6.26577 6.60307,2.60478 12.58843,8.83198 14.18385,14.75696 l 1.48199,5.5037 1.76375,-3.29216 c 1.69406,-3.16212 2.20552,-3.27408 12.94869,-2.83456 14.27939,0.58418 21.02064,-1.78334 21.041,-7.38956 0.0107,-3.09282 0.93473,-4.12166 5.37315,-5.98603 4.42061,-1.85689 5.8564,-3.4468 8.19542,-9.07513 2.28499,-5.49828 3.58238,-6.97312 6.67895,-7.59243 5.33704,-1.06741 4.16044,-3.1318 -4.22585,-7.41445 -8.53734,-4.35979 -15.69351,-4.67103 -23.71219,-1.0313 -4.37456,1.98563 -6.9344,4.58227 -11.15785,11.31827 -7.1298,11.37133 -9.95584,12.05792 -28.49852,6.92379 l -6.66667,-1.84588 4.46812,-0.98466 c 2.592,-0.5712 6.84856,-0.31816 10.13736,0.60264 9.84645,2.75684 11.65031,1.80824 15.12412,-7.95334 3.76344,-10.57546 5.28477,-12.32367 13.97903,-16.06384 5.30336,-2.28144 8.43038,-2.78466 13.83677,-2.22667 8.99519,0.92839 24.08128,9.11249 25.98527,14.09684 2.19197,5.73825 2.99245,20.69535 1.27893,23.89708 -1.20627,2.25393 -1.09627,3.92885 0.51061,7.77467 1.12647,2.69601 1.89026,5.02844 1.6973,5.18318 -0.19296,0.15474 -1.70084,0.98372 -3.35084,1.84219 -1.65,0.85847 -3,2.49511 -3,3.63696 0,1.14187 -1.2,3.60168 -2.66667,5.46624 -1.46667,1.86456 -2.66667,4.2092 -2.66667,5.21031 0,2.56994 -4.03658,2.26528 -13.53397,-1.0215 -7.60564,-2.63208 -8.90904,-2.71461 -17.67197,-1.1189 -5.2034,0.94752 -11.02166,2.49562 -12.92947,3.44024 -5.34568,2.64678 -10.89089,9.71966 -19.13169,24.40233 -4.14638,7.38765 -8.66808,14.03641 -10.04823,14.77505 -3.54997,1.89988 -8.66221,1.66668 -14.2016,-0.64783 -4.24615,-1.77414 -6.01884,-1.76154 -16.29051,0.11587 -19.56641,3.57624 -25.73425,5.93524 -29.30509,11.20825 -2.81394,4.15532 -3.08406,5.71839 -2.46516,14.265 l 0.69506,9.59834 11.17396,13.78806 c 16.47158,20.32505 22.29821,28.98216 33.43819,49.68193 10.92464,20.29964 12.3015,24.2911 13.56812,39.33333 3.14214,37.31588 13.4228,84.20725 22.3629,102 5.35902,10.66561 18.32109,30.81681 22.23402,34.56565 4.34863,4.16624 4.26104,6.10102 -0.27617,6.10102 -2.14491,0 -1.00639,1.23305 4.41201,4.77833 4.01662,2.62808 8.97756,6.36392 11.02432,8.30188 3.86282,3.65745 12.33552,16.05413 11.45014,16.75304 -0.27767,0.21918 -5.00486,-1.05307 -10.50486,-2.82723 z m -45.11728,-25.84366 c 11.98478,-1.53699 14.76178,-3.81051 4.70526,-3.85218 -9.82644,-0.0407 -23.5879,-3.74441 -36.76883,-9.8958 -11.86115,-5.53545 -28.97268,-11.03864 -30.27474,-9.73656 -0.30684,0.30684 2.95241,4.15643 7.24278,8.55466 14.347,14.70769 27.99331,18.4056 55.09553,14.92988 z m -56.41975,-55.16236 c -2.26784,-21.11493 0.70909,-41.67945 10.42278,-72 4.73548,-14.7814 5.80937,-19.80818 5.15952,-24.15105 -1.07009,-7.15129 -8.70256,-22.97153 -15.9817,-33.12617 -6.13922,-8.56442 -12.73023,-15.39558 -12.73023,-13.19407 0,0.72979 2.44131,7.80532 5.42512,15.72341 2.9838,7.91808 6.38315,18.27879 7.55409,23.02378 l 2.129,8.62726 -5.22077,20.21508 c -4.95505,19.18621 -5.2192,21.23303 -5.18983,40.21509 0.0228,14.76707 0.62946,22.1284 2.31836,28.13466 2.46346,8.76074 6.22808,18.45193 6.86644,17.67613 0.21607,-0.2626 -0.12266,-5.27746 -0.75278,-11.14412 z m 17.07822,-266.85466 c 9.02833,-4.28422 3.64205,-13.4776 -10.09964,-17.23821 -4.09285,-1.12007 -20.64154,-6.45957 -36.77488,-11.86555 -16.13333,-5.40597 -31.13333,-10.18206 -33.33333,-10.61353 -3.97505,-0.77957 -3.96345,-0.75101 1.86123,4.58089 3.51717,3.21963 14.98166,9.95088 28.66666,16.83134 22.46364,11.29413 30.13878,16.4534 30.13878,20.25942 0,1.56644 1.43362,1.76563 7.54118,1.0478 4.14766,-0.48746 9.54765,-1.83844 12,-3.00216 z"
       id="path74" />
  </g>
</svg>
